<?xml version="1.0"?>
<svg xmlns="http://www.w3.org/2000/svg" height="512px" viewBox="0 0 512.0022 512" width="512px"><g><path d="m466.785156 443.269531c3.523438 16.953125-.707031 34.363281-11.605468 47.765625-10.839844 13.324219-26.90625 20.964844-44.078126 20.964844h-354.203124c-17.171876 0-33.238282-7.640625-44.078126-20.964844-10.898437-13.402344-15.132812-30.8125-11.605468-47.765625 10.96875-52.746093 40.027344-100.742187 81.820312-135.152343 21.941406-18.066407 46.898438-31.917969 73.488282-41.089844-28.929688-22.914063-47.523438-58.335938-47.523438-98.023438 0-68.925781 56.074219-125 125-125 1.570312 0 3.171875.03125 4.75.089844 11.035156.414062 19.648438 9.695312 19.234375 20.734375s-9.714844 19.625-20.734375 19.238281c-1.082031-.042968-2.175781-.0625-3.25-.0625-46.871094 0-85 38.128906-85 85 0 46.867188 38.128906 84.996094 85 84.996094 19.304688 0 37.496094-6.304688 52.609375-18.230469 8.667969-6.84375 21.242187-5.359375 28.089844 3.308594 6.777343 8.589844 5.375 21.003906-3.078125 27.886719 10.3125 3.578125 20.425781 7.867187 30.296875 12.910156 32.050781 16.367188 60.457031 40.261719 82.152343 69.105469 6.636719 8.828125 4.863282 21.367187-3.960937 28.003906-8.832031 6.640625-21.367187 4.867187-28.007813-3.960937-37.773437-50.21875-95.398437-79.019532-158.101562-79.019532-93.222656 0-174.652344 66.199219-193.625 157.410156-1.0625 5.117188.203125 10.355469 3.476562 14.382813 1.886719 2.316406 6.089844 6.207031 13.046876 6.207031h354.199218c6.960938 0 11.164063-3.890625 13.050782-6.207031 3.269531-4.023437 4.539062-9.265625 3.472656-14.382813-2.25-10.8125 4.695312-21.402343 15.507812-23.652343 10.824219-2.242188 21.40625 4.691406 23.65625 15.507812zm43.300782-288.632812-7.589844 16.082031c-4.210938 8.925781-14.304688 13.4375-23.761719 10.644531l-22.734375-6.726562c-5.644531 4.6875-11.878906 8.554687-18.570312 11.515625l-3.683594 23.011718c-1.550782 9.699219-9.921875 16.839844-19.75 16.839844h-18c-9.675782 0-17.96875-6.933594-19.683594-16.457031l-4.25-23.628906c-5.480469-2.476563-10.660156-5.566407-15.453125-9.214844l-21.96875 7.902344c-9.183594 3.300781-19.410156-.503907-24.199219-9.007813l-8.871094-15.765625c-4.792968-8.511719-2.734374-19.242187 4.871094-25.375l18.804688-15.167969c-.035156-.445312-.050782-.890624-.078125-1.335937-.027344-.421875-.058594-.847656-.078125-1.277344-.054688-1.222656-.089844-2.449219-.089844-3.675781 0-1.296875.03125-2.601562.09375-3.902344l-19.261719-12.964844c-8.582031-5.777343-11.34375-17.144531-6.367187-26.210937l9.3125-16.976563c4.523437-8.25 14.183594-12.230468 23.207031-9.558593l23.332031 6.902343c5.128906-4.070312 10.722656-7.484374 16.671875-10.179687l3.203125-22.882813c1.382813-9.875 9.832032-17.226562 19.808594-17.226562h19c9.679688 0 17.96875 6.933594 19.683594 16.457031l4.253906 23.628907c.390625.179687.769531.378906 1.15625.5625.410156.195312.816406.394531 1.222656.59375.847656.417968 1.6875.84375 2.519532 1.292968.269531.144532.53125.292969.800781.441406.9375.519532 1.875 1.050782 2.792969 1.609376.039062.023437.074218.050781.113281.070312 2.164062 1.320312 4.277343 2.722656 6.3125 4.246094l21.59375-8.246094c8.921875-3.410156 19.015625-.027344 24.085937 8.070312l10.417969 16.640626c5.445313 8.699218 3.425781 20.109374-4.683594 26.40625l-19.5 15.148437c.03125.402344.042969.800781.070313 1.203125.023437.410156.050781.816406.070312 1.226562.054688 1.214844.089844 2.433594.089844 3.648438 0 1.042969-.019531 2.082031-.0625 3.121094l18.890625 13.851562c7.71875 5.664063 10.34375 16.003906 6.257813 24.664063zm-145.085938-41.632813c0 .765625.027344 1.53125.070312 2.292969.011719.214844.03125.425781.046876.636719.042968.558594.089843 1.113281.15625 1.667968.027343.242188.058593.480469.089843.71875.070313.53125.152344 1.0625.246094 1.59375.042969.238282.082031.472657.125.710938.105469.546875.230469 1.089844.355469 1.632812 1.679687 7.046876 5.222656 13.378907 10.085937 18.4375.351563.367188.710938.726563 1.074219 1.078126.246094.238281.496094.480468.75.710937.523438.484375 1.0625.953125 1.609375 1.40625.292969.242187.597656.46875.898437.703125.328126.257812.660157.507812 1 .753906.332032.246094.667969.488282 1.007813.71875.394531.269532.792969.523438 1.199219.777344.515625.328125 1.035156.640625 1.566406.941406.339844.195313.683594.386719 1.027344.570313.371094.195312.738281.386719 1.113281.570312.421875.207031.851563.402344 1.277344.59375.480469.214844.96875.421875 1.457031.617188.488281.195312.976562.386719 1.472656.558593.320313.117188.640625.222657.964844.328126.5625.183593 1.128906.355468 1.699219.511718 3.410156.949219 6.996093 1.46875 10.703125 1.46875 3.394531 0 6.6875-.429687 9.832031-1.226562.835937-.210938 1.664063-.460938 2.480469-.722656.289062-.09375.574218-.191407.859375-.292969.585937-.203125 1.164062-.421875 1.738281-.652344.484375-.195313.957031-.398437 1.429688-.613281.445312-.199219.886718-.402344 1.320312-.617188.414062-.203125.820312-.410156 1.222656-.625.371094-.199218.734375-.414062 1.101563-.625.621093-.359375 1.234375-.738281 1.835937-1.128906.320313-.210938.640625-.425781.957032-.644531.367187-.257813.734374-.511719 1.09375-.78125.578124-.433594 1.148437-.878907 1.703124-1.34375.269532-.226563.535157-.460938.800782-.695313.503906-.445312 1.003906-.902344 1.492187-1.375.128907-.128906.269531-.25.398438-.382812.617187-.621094 1.214843-1.269532 1.800781-1.933594 4.46875-5.097656 7.675781-11.332031 9.101562-18.210938.085938-.40625.152344-.816406.222657-1.226562.042969-.246094.097656-.492188.132812-.738281.097657-.613281.171875-1.222657.238281-1.839844.007813-.0625.019532-.121094.023438-.183594.144531-1.378906.214844-2.761719.214844-4.144531 0-.765625-.027344-1.53125-.070313-2.296875-.011719-.21875-.035156-.433594-.050781-.648437-.039062-.554688-.089844-1.109376-.152344-1.664063-.027344-.242187-.058594-.484375-.09375-.726563-.070312-.53125-.152344-1.058593-.246094-1.585937-.039062-.238281-.082031-.480469-.128906-.71875-.105468-.550781-.226562-1.101563-.359375-1.648437-1.683593-7.054688-5.238281-13.382813-10.113281-18.441407-.417969-.433593-.847656-.859375-1.285156-1.273437-.175782-.167969-.351563-.34375-.53125-.507813-.558594-.511719-1.128906-1-1.710938-1.476562-.25-.207031-.507812-.402344-.761718-.597657-.386719-.300781-.777344-.59375-1.171876-.878906-.285156-.207031-.566406-.414062-.859374-.609375-.582032-.398437-1.171876-.78125-1.773438-1.144531-.316406-.191406-.640625-.371094-.964844-.554688-.371094-.214843-.75-.421874-1.128906-.625-.34375-.179687-.6875-.359374-1.039062-.53125-.472657-.234374-.953126-.453124-1.4375-.664062-.441407-.195312-.882813-.378906-1.328126-.558594-.480468-.191406-.960937-.378906-1.445312-.550781-.320312-.109375-.640625-.21875-.960938-.324219-.554687-.179687-1.109374-.347656-1.671874-.503906-3.410157-.949219-7-1.46875-10.710938-1.46875-3.636719 0-7.160156.5-10.511719 1.414062-.5625.152344-1.125.316407-1.683593.496094-.402344.128906-.800782.261719-1.199219.40625-.351563.125-.695313.257813-1.042969.390625-.828125.324219-1.648438.671875-2.449219 1.046875-.175781.082032-.355469.15625-.527343.242188-.511719.25-1.015626.507812-1.515626.777344-.125.066406-.246093.140624-.371093.207031-1.585938.878906-3.109375 1.855469-4.554688 2.933593-.070312.054688-.140625.109376-.210937.164063-.902344.679687-1.773438 1.402344-2.617188 2.15625-.082031.078125-.171875.152344-.257812.226563-.417969.386718-.832032.777343-1.234375 1.179687-.128907.128906-.253907.261719-.382813.390625-5.070312 5.175781-8.746094 11.722656-10.421875 19.023438-.15625.6875-.296875 1.375-.417969 2.0625-.003906.042968-.015624.085937-.023437.132812-.117187.695312-.21875 1.390625-.300781 2.089844-.003906.058594-.015625.117187-.019532.175781-.078124.664063-.132812 1.328125-.171874 1.992187-.007813.09375-.019532.1875-.023438.277344-.042969.742188-.0625 1.480469-.0625 2.21875zm0 0" data-original="#000000" class="active-path" data-old_color="#000000" fill="#000078"/></g> </svg>
