<svg width="512" height="512" xmlns="http://www.w3.org/2000/svg">

 <g>
  <title>background</title>
  <rect fill="none" id="canvas_background" height="402" width="582" y="-1" x="-1"/>
 </g>
 <g>
  <title>Layer 1</title>
  <g id="svg_1">
   <path id="svg_2" fill="#000078" class="active-path" d="m471.38672,325.01172c-16.96875,-14.91016 -37.54688,-27.79297 -61.16797,-38.28906c-10.09766,-4.48438 -21.91406,0.0625 -26.39844,10.15625c-4.48437,10.09375 0.0625,21.91015 10.15625,26.39843c19.91797,8.85157 37.08203,19.54297 51.00782,31.78125c17.16796,15.08594 27.01562,36.92969 27.01562,59.94141l0,37c0,11.02734 -8.97266,20 -20,20l-392,0c-11.02734,0 -20,-8.97266 -20,-20l0,-37c0,-23.01172 9.84766,-44.85547 27.01563,-59.94141c20.20703,-17.75781 79.08203,-59.05859 188.98437,-59.05859c81.60547,0 148,-66.39453 148,-148s-66.39453,-148 -148,-148s-148,66.39453 -148,148c0,47.70703 22.69531,90.20703 57.85156,117.28906c-64.32812,14.14063 -104.34375,41.35938 -125.23828,59.72266c-25.80859,22.67578 -40.61328,55.47266 -40.61328,89.98828l0,37c0,33.08594 26.91406,60 60,60l392,0c33.08594,0 60,-26.91406 60,-60l0,-37c0,-34.51562 -14.80469,-67.3125 -40.61328,-89.98828zm-323.38672,-177.01172c0,-59.55078 48.44922,-108 108,-108s108,48.44922 108,108s-48.44922,108 -108,108s-108,-48.44922 -108,-108zm0,0"/>
  </g>
  <line stroke-linecap="null" stroke-linejoin="null" id="svg_4" y2="390.324364" x2="323.05162" y1="390.324491" x1="188.948383" stroke-width="20" fill="#000078"/>
  <line stroke="#000078" stroke-linecap="null" stroke-linejoin="null" id="svg_6" y2="393.652003" x2="300.844704" y1="393.08283" x1="211.155292" stroke-width="20" fill="none"/>
  <line transform="rotate(90 255.99999999999997,393.36743164062506) " stroke="#000078" stroke-linecap="null" stroke-linejoin="null" id="svg_7" y2="393.652003" x2="300.844704" y1="393.08283" x1="211.155292" stroke-width="20" fill="none"/>
 </g>
</svg>