<?xml version="1.0"?>
<svg xmlns="http://www.w3.org/2000/svg" xmlns:xlink="http://www.w3.org/1999/xlink" version="1.1" id="Layer_1" x="0px" y="0px" viewBox="0 0 512 512" style="enable-background:new 0 0 512 512;" xml:space="preserve" width="512px" height="512px"><g><g>
	<path d="M505.43,34.616c-4.109-2.792-9.336-3.369-13.954-1.538l-101.89,40.365L129.47,32.209c-2.554-0.405-5.172-0.143-7.597,0.763   L9.752,74.849C3.888,77.039,0,82.641,0,88.901v376.076c0,4.916,2.409,9.521,6.448,12.323c2.546,1.768,5.536,2.677,8.553,2.677   c1.769,0,3.546-0.313,5.247-0.948l108.424-40.497l260.272,41.261c2.657,0.42,5.374,0.12,7.873-0.87l105.707-41.878   c5.72-2.266,9.476-7.794,9.476-13.945V47.024C512,42.055,509.54,37.409,505.43,34.616z M482,412.907L406.293,442.9v-7.096   c0-8.284-6.716-15-15-15s-15,6.716-15,15v11.608l-234.172-37.122v-14.661c0-8.284-6.716-15-15-15s-15,6.716-15,15v17.061   L30,443.361V99.311l82.121-30.672v9.261c0,8.284,6.716,15,15,15s15-6.716,15-15v-13.31l234.172,37.122v16.365   c0,8.284,6.716,15,15,15s15-6.716,15-15V99.092L482,69.1V412.907z" data-original="#000000" class="active-path" data-old_color="#000000" fill="#0000C8"/>
	<path d="M391.293,149.92c-8.284,0-15,6.716-15,15v20.876c0,8.284,6.716,15,15,15s15-6.716,15-15V164.92   C406.293,156.636,399.577,149.92,391.293,149.92z" data-original="#000000" class="active-path" data-old_color="#000000" fill="#0000C8"/>
	<path d="M391.293,217.641c-8.284,0-15,6.716-15,15v20.875c0,8.284,6.716,15,15,15s15-6.716,15-15v-20.875   C406.293,224.357,399.577,217.641,391.293,217.641z" data-original="#000000" class="active-path" data-old_color="#000000" fill="#0000C8"/>
	<path d="M391.293,285.361c-8.284,0-15,6.716-15,15v20.876c0,8.284,6.716,15,15,15s15-6.716,15-15v-20.876   C406.293,292.077,399.577,285.361,391.293,285.361z" data-original="#000000" class="active-path" data-old_color="#000000" fill="#0000C8"/>
	<path d="M391.293,353.083c-8.284,0-15,6.716-15,15v20.875c0,8.284,6.716,15,15,15s15-6.716,15-15v-20.875   C406.293,359.799,399.577,353.083,391.293,353.083z" data-original="#000000" class="active-path" data-old_color="#000000" fill="#0000C8"/>
	<path d="M127.121,109.745c-8.284,0-15,6.716-15,15v20.875c0,8.284,6.716,15,15,15s15-6.716,15-15v-20.875   C142.121,116.461,135.405,109.745,127.121,109.745z" data-original="#000000" class="active-path" data-old_color="#000000" fill="#0000C8"/>
	<path d="M127.121,177.465c-8.284,0-15,6.716-15,15v20.875c0,8.284,6.716,15,15,15s15-6.716,15-15v-20.875   C142.121,184.181,135.405,177.465,127.121,177.465z" data-original="#000000" class="active-path" data-old_color="#000000" fill="#0000C8"/>
	<path d="M127.121,245.187c-8.284,0-15,6.716-15,15v20.875c0,8.284,6.716,15,15,15s15-6.716,15-15v-20.875   C142.121,251.902,135.405,245.187,127.121,245.187z" data-original="#000000" class="active-path" data-old_color="#000000" fill="#0000C8"/>
	<path d="M127.121,312.907c-8.284,0-15,6.716-15,15v20.875c0,8.284,6.716,15,15,15s15-6.716,15-15v-20.875   C142.121,319.623,135.405,312.907,127.121,312.907z" data-original="#000000" class="active-path" data-old_color="#000000" fill="#0000C8"/>
	<path d="M256,119.195c-31.849,0-60.809,16.171-77.467,43.259c-16.604,26.997-17.981,59.999-3.685,88.281   c0.255,0.505,0.539,0.996,0.85,1.469l67.765,103.154c2.773,4.223,7.485,6.765,12.537,6.765s9.764-2.542,12.537-6.765   l67.765-103.154c0.311-0.473,0.595-0.964,0.85-1.469c14.297-28.283,12.919-61.285-3.685-88.281   C316.809,135.367,287.849,119.195,256,119.195z M310.736,236.482L256,319.803l-54.736-83.321   c-9.175-18.749-8.139-40.488,2.823-58.311c11.158-18.143,30.565-28.975,51.913-28.975s40.755,10.832,51.913,28.975   C318.875,195.994,319.911,217.733,310.736,236.482z" data-original="#000000" class="active-path" data-old_color="#000000" fill="#0000C8"/>
	<path d="M256,164.533c-24.639,0-44.684,20.011-44.684,44.608s20.045,44.607,44.684,44.607s44.684-20.011,44.684-44.607   S280.639,164.533,256,164.533z M256,223.748c-8.097,0-14.684-6.553-14.684-14.607s6.587-14.608,14.684-14.608   s14.684,6.553,14.684,14.608S264.097,223.748,256,223.748z" data-original="#000000" class="active-path" data-old_color="#000000" fill="#0000C8"/>
</g></g> </svg>
