<?xml version="1.0"?>
<svg xmlns="http://www.w3.org/2000/svg" xmlns:xlink="http://www.w3.org/1999/xlink" version="1.1" id="Capa_1" x="0px" y="0px" viewBox="0 0 512 512" style="enable-background:new 0 0 512 512;" xml:space="preserve" width="512px" height="512px"><g><g>
	<g>
		<path d="M369.095,103.116c-40.837-40.837-95.132-63.327-152.884-63.327c-57.752,0-112.047,22.49-152.884,63.327    C22.49,143.953,0,198.248,0,256s22.49,112.047,63.327,152.884c40.837,40.837,95.132,63.327,152.884,63.327    s112.047-22.49,152.884-63.327c40.837-40.837,63.327-95.132,63.327-152.884S409.932,143.953,369.095,103.116z M216.211,457.197    c-110.94,0-201.196-90.256-201.196-201.196S105.271,54.804,216.211,54.804S417.408,145.06,417.408,256    S327.151,457.197,216.211,457.197z" data-original="#000000" class="active-path" data-old_color="#000000" fill="#000078"/>
	</g>
</g><g>
	<g>
		<path d="M361.977,156.169c-2.345-3.419-7.02-4.288-10.438-1.943c-3.419,2.345-4.289,7.019-1.943,10.437    c18.487,26.943,28.259,58.527,28.259,91.337c0,89.13-72.513,161.644-161.644,161.644S54.567,345.13,54.567,256    S127.081,94.356,216.211,94.356c30.231,0,59.707,8.395,85.244,24.277c3.522,2.191,8.151,1.11,10.34-2.41    c2.19-3.52,1.111-8.15-2.41-10.34c-27.919-17.363-60.138-26.541-93.174-26.541C118.802,79.342,39.553,158.59,39.553,256    s79.249,176.659,176.659,176.659S392.87,353.41,392.87,256C392.87,220.145,382.187,185.623,361.977,156.169z" data-original="#000000" class="active-path" data-old_color="#000000" fill="#000078"/>
	</g>
</g><g>
	<g>
		<path d="M501.464,72.821h-3.136c-25.578,0-46.386,24.285-46.386,54.135v140.288c0,10.292,7.541,18.665,16.811,18.665h4.209    v119.873c0,7.376,5.563,13.376,12.401,13.376h14.236c6.839,0,12.401-6.001,12.401-13.376V83.357    C512,77.548,507.273,72.821,501.464,72.821z M496.985,404.145h-9.009V278.402c0-4.146-3.361-7.507-7.507-7.507h-11.716    c-0.461,0-1.797-1.255-1.797-3.651V126.956c0-21.01,13.351-38.204,30.029-39.084V404.145z" data-original="#000000" class="active-path" data-old_color="#000000" fill="#000078"/>
	</g>
</g><g>
	<g>
		<path d="M242.189,172.65c-5.909-8.771-15.377-13.8-25.977-13.8s-20.069,5.03-25.977,13.8    c-46.119,68.462-51.098,96.657-51.098,105.602c0,42.5,34.576,77.075,77.075,77.075s77.075-34.576,77.075-77.075    C293.286,269.307,288.308,241.111,242.189,172.65z M216.211,340.312c-34.22,0-62.061-27.84-62.061-62.061    c0-4.202,2.34-28.637,48.536-97.214c3.117-4.628,7.92-7.175,13.524-7.175c5.604,0,10.407,2.549,13.524,7.175    c46.196,68.577,48.536,93.013,48.536,97.214C278.272,312.472,250.432,340.312,216.211,340.312z" data-original="#000000" class="active-path" data-old_color="#000000" fill="#000078"/>
	</g>
</g><g>
	<g>
		<path d="M341.333,221.466h-40.851c-9.079-18.181-21.605-39.143-37.54-62.797c-10.479-15.557-27.949-24.844-46.732-24.844    s-36.252,9.287-46.732,24.844c-4.828,7.167-9.342,14.087-13.544,20.756h-41.824c-12.971,0-23.523,10.552-23.523,23.523    c0,12.971,10.552,23.523,23.523,23.523h15.383c-3.774,7.902-6.857,15.245-9.245,22.021H86.084    c-12.971,0-23.523,10.552-23.523,23.523c0,12.849,10.356,23.325,23.159,23.52c-0.744,2.583-1.137,5.437-1.137,8.511    c0,12.971,10.552,23.523,23.523,23.523h18.726c17.421,31.447,50.955,52.782,89.379,52.782c56.298,0,102.1-45.802,102.1-102.1    c0-3.019-0.276-6.266-0.827-9.74h23.849c12.971,0,23.523-10.552,23.523-23.523C364.856,232.019,354.304,221.466,341.333,221.466z     M108.106,312.555c-4.692,0-8.508-3.817-8.508-8.508c0-5.646,1.853-8.508,5.505-8.508c4.146,0,7.507-3.361,7.507-7.507    c0-4.146-3.361-7.507-7.507-7.507H86.084c-4.692,0-8.508-3.817-8.508-8.508s3.817-8.508,8.508-8.508h29.803    c-1.183,5.401-1.776,10.319-1.776,14.744c0,12.029,2.091,23.577,5.928,34.303H108.106z M114.111,211.457    c-4.692,0-8.508-3.817-8.508-8.508s3.817-8.508,8.508-8.508h32.648c-3.485,5.895-6.694,11.567-9.624,17.017H114.111z     M216.211,365.337c-48.019,0-87.085-39.066-87.085-87.085c0-21.156,18.753-60.645,52.806-111.195    c7.8-11.578,20.294-18.219,34.279-18.219s26.48,6.64,34.279,18.219c34.052,50.55,52.806,90.04,52.806,111.195    C303.296,326.272,264.23,365.337,216.211,365.337z M341.333,253.498h-27.49c-1.663-5.295-3.79-10.969-6.376-17.017h33.866    c4.692,0,8.508,3.817,8.508,8.508S346.025,253.498,341.333,253.498z" data-original="#000000" class="active-path" data-old_color="#000000" fill="#000078"/>
	</g>
</g></g> </svg>
