<?xml version="1.0"?>
<svg xmlns="http://www.w3.org/2000/svg" id="Capa_1" enable-background="new 0 0 512 512" height="512px" viewBox="0 0 512 512" width="512px"><g><path d="m504.5 368.742h-8.532v-297.113c0-4.142-3.358-7.5-7.5-7.5h-464.936c-4.142 0-7.5 3.358-7.5 7.5v297.113h-8.532c-4.142 0-7.5 3.358-7.5 7.5v64.129c0 4.142 3.358 7.5 7.5 7.5h497c4.142 0 7.5-3.358 7.5-7.5v-64.129c0-4.142-3.358-7.5-7.5-7.5zm-40.597 0v-46.539l17.064 17.064v29.474h-17.064zm17.065-257.548v38.522l-33.097-33.097v-5.425zm-17.065 154.896 17.064 17.064v34.9l-17.064-17.064zm-16.032-128.258 33.097 33.097v34.9l-33.097-33.097zm0 56.113 33.097 33.097v34.9l-17.064-17.064v-20.942c0-4.142-3.358-7.5-7.5-7.5h-8.532v-22.491zm1.032 37.491v17.632c-6.754-5.366-15.288-8.584-24.564-8.584s-17.811 3.218-24.564 8.584v-17.632zm-24.564 24.048c13.545 0 24.564 11.02 24.564 24.564s-11.02 24.564-24.564 24.564-24.564-11.02-24.564-24.564 11.019-24.564 24.564-24.564zm-393.307-176.355h449.936v17.065h-297.115c-4.142 0-7.5 3.358-7.5 7.5s3.358 7.5 7.5 7.5h64.647v17.064h-.516c-8.556 0-15.516 6.96-15.516 15.516v24.048c0 4.142 3.358 7.5 7.5 7.5h32.064c4.142 0 7.5-3.358 7.5-7.5v-24.048c0-8.556-6.96-15.516-15.516-15.516h-.516v-17.064h105.242v17.064h-.516c-8.556 0-15.516 6.96-15.516 15.516v24.048c0 4.142 3.358 7.5 7.5 7.5h32.065c4.142 0 7.5-3.358 7.5-7.5v-24.048c0-8.556-6.96-15.516-15.516-15.516h-.517v-17.064h49.129v105.242h-40.597c-4.142 0-7.5 3.358-7.5 7.5v120.242c0 4.142 3.358 7.5 7.5 7.5s7.5-3.358 7.5-7.5v-33.148c6.754 5.366 15.288 8.584 24.564 8.584s17.811-3.218 24.564-8.584v57.713h-321.676v-144.807c0-4.142-3.358-7.5-7.5-7.5h-40.597v-105.242h49.129v17.064h-.517c-8.556 0-15.516 6.96-15.516 15.516v24.048c0 4.142 3.358 7.5 7.5 7.5h32.065c4.142 0 7.5-3.358 7.5-7.5v-24.048c0-8.556-6.96-15.516-15.516-15.516h-.516v-17.064h8.531c4.142 0 7.5-3.358 7.5-7.5s-3.358-7.5-7.5-7.5h-120.757zm232.984 64.129c.285 0 .516.231.516.516v16.548h-17.064v-16.548c0-.285.231-.516.516-.516zm120.242 0c.285 0 .516.231.516.516v16.548h-17.065v-16.548c0-.285.231-.516.516-.516zm-321.161 225.484v-57.713c6.754 5.366 15.288 8.584 24.564 8.584s17.811-3.218 24.564-8.584v57.713zm-32.065-257.548h33.097v5.425l-33.097 33.097zm32.065 168.854c0-13.545 11.02-24.564 24.564-24.564s24.564 11.02 24.564 24.564-11.02 24.564-24.564 24.564-24.564-11.019-24.564-24.564zm49.129-30.98c-6.754-5.366-15.288-8.584-24.564-8.584s-17.811 3.218-24.564 8.584v-17.632h49.129v17.632zm-81.194-78.139 33.097-33.097v34.9l-33.097 33.097zm0 56.113 33.097-33.097v22.49h-8.532c-4.142 0-7.5 3.358-7.5 7.5v20.942l-17.064 17.064v-34.899zm0 56.113 17.064-17.064v34.9l-17.064 17.064zm112.742-139.897c.285 0 .516.231.516.516v16.548h-17.065v-16.548c0-.285.231-.516.516-.516zm-112.742 196.01 17.064-17.064v46.539h-17.064zm465.968 93.603h-482v-49.129h482z" data-original="#000000" class="active-path" data-old_color="#000000" fill="#000078"/><path d="m215.919 344.179c17.396 0 31.548-12.354 31.548-27.541v-68.137c0-7.861 5.595-14.685 13.303-16.227l43.578-8.715c2.793-.561 4.801.659 5.747 1.435s2.534 2.503 2.534 5.354v46.823c-4.814-2.6-10.483-4.106-16.548-4.106-17.396 0-31.548 12.354-31.548 27.541s14.152 27.541 31.548 27.541 31.548-12.354 31.548-27.541v-70.258c0-6.594-2.925-12.774-8.024-16.954-5.1-4.181-11.734-5.837-18.199-4.543l-43.577 8.715c-14.695 2.939-25.361 15.949-25.361 30.936v44.703c-4.814-2.6-10.483-4.106-16.548-4.106-17.396 0-31.548 12.354-31.548 27.54-.001 15.185 14.151 27.54 31.547 27.54zm80.162-31.033c-8.97 0-16.548-5.743-16.548-12.541s7.578-12.541 16.548-12.541 16.548 5.743 16.548 12.541-7.578 12.541-16.548 12.541zm-80.162-9.048c8.97 0 16.548 5.743 16.548 12.54 0 6.798-7.578 12.541-16.548 12.541s-16.548-5.743-16.548-12.541c0-6.797 7.578-12.54 16.548-12.54z" data-original="#000000" class="active-path" data-old_color="#000000" fill="#000078"/><path d="m87.741 336.677h-.08c-4.142 0-7.46 3.358-7.46 7.5s3.398 7.5 7.54 7.5 7.5-3.358 7.5-7.5-3.358-7.5-7.5-7.5z" data-original="#000000" class="active-path" data-old_color="#000000" fill="#000078"/><path d="m424.259 351.677h.08c4.142 0 7.46-3.358 7.46-7.5s-3.398-7.5-7.54-7.5-7.5 3.358-7.5 7.5 3.358 7.5 7.5 7.5z" data-original="#000000" class="active-path" data-old_color="#000000" fill="#000078"/></g> </svg>
