<?xml version="1.0"?>
<svg xmlns="http://www.w3.org/2000/svg" id="Capa_1" enable-background="new 0 0 512 512" height="512px" viewBox="0 0 512 512" width="512px"><g><g><path d="m485.813 277.172c4.141 0 7.497-3.356 7.497-7.497v-241.633c-.001-15.463-12.58-28.042-28.043-28.042h-177.094c-15.462 0-28.041 12.579-28.041 28.042 0 0 .091 97.72.247 98.322l-236.574 236.574c-6.819 6.82-6.819 17.917 0 24.738l76.586 76.586c2.927 2.926 7.674 2.926 10.602 0 2.928-2.928 2.928-7.674 0-10.603l-76.586-76.585c-.975-.975-.975-2.56 0-3.535l276.446-276.445c.636-.637 1.38-.732 1.767-.732s1.13.095 1.767.732l119.208 119.209c.637.636.732 1.38.732 1.766s-.095 1.13-.732 1.767l-276.445 276.446c-.637.637-1.381.732-1.767.732-.387 0-1.13-.095-1.767-.732l-18.781-18.781c-2.927-2.926-7.674-2.926-10.602 0-2.928 2.928-2.928 7.674 0 10.603l18.781 18.781c3.41 3.41 7.889 5.115 12.369 5.115 4.479 0 8.958-1.705 12.368-5.115l95.736-95.737c4.744 8.775 14.029 14.75 24.685 14.75h177.094c15.463 0 28.042-12.579 28.042-28.042v-91.826c0-4.141-3.356-7.497-7.497-7.497s-7.497 3.356-7.497 7.497v28.731h-138.438l104.322-104.323c6.819-6.82 6.819-17.918 0-24.738l-119.208-119.208c-6.821-6.819-17.918-6.819-24.739 0l-25.126 25.126v-36.466h127.158c4.141 0 7.497-3.356 7.497-7.497s-3.356-7.497-7.497-7.497h-127.158v-32.116c0-7.195 5.853-13.049 13.048-13.049h177.094c7.195 0 13.049 5.854 13.049 13.049v32.117h-40.829c-4.141 0-7.497 3.356-7.497 7.497s3.356 7.497 7.497 7.497h40.829v194.523c0 4.14 3.356 7.496 7.497 7.496zm-7.497 72.583v48.102c0 7.195-5.854 13.049-13.049 13.049h-177.094c-6.668 0-12.175-5.031-12.947-11.495l49.694-49.694c.245.024.494.038.745.038z" data-original="#000000" class="active-path" data-old_color="#000000" fill="#000078"/><path d="m376.72 395.316c7.432 0 13.456-6.025 13.456-13.456s-6.025-13.456-13.456-13.456c-7.432 0-13.456 6.025-13.456 13.456s6.025 13.456 13.456 13.456z" data-original="#000000" class="active-path" data-old_color="#000000" fill="#000078"/><path d="m243.089 297.464-96.559-5.617c-3.595-.215-7.116 1.131-9.663 3.677l-11.68 11.68c-2.077 2.077-3.043 5.049-2.584 7.95s2.294 5.43 4.912 6.766l60.348 30.77-11.421 11.421-30.607-2.744c-3.488-.315-6.908.925-9.383 3.401l-9.777 9.777c-2.082 2.082-3.047 5.061-2.581 7.969.466 2.907 2.313 5.435 4.943 6.762l14.78 7.46-5.858 5.858c-3.38 3.381-4.079 8.452-1.737 12.62 1.912 3.403 5.392 5.388 9.133 5.388.841 0 11.005-2.361 11.005-2.361 27.158-6.595 51.958-20.527 71.719-40.287l74.149-74.148c3.603-3.604 6.428-8.039 8.168-12.83l6.873-18.91c1.68-4.621.563-9.652-2.914-13.128-3.476-3.478-8.507-4.595-13.128-2.914l-18.909 6.872c-4.789 1.74-9.226 4.565-12.83 8.169zm44.349-20.476 13.929-5.062-5.062 13.929c-.998 2.744-2.615 5.285-4.68 7.348l-74.148 74.148c-16.046 16.046-35.777 27.828-57.427 34.354l1.693-1.694c3.595-3.404 2.556-9.883-1.923-11.993l-16.891-8.526 3.06-3.06 32.606 2.922c2.209.2 4.399-.595 5.97-2.165l21.193-21.194c1.697-1.697 2.479-4.104 2.104-6.473-.375-2.37-1.862-4.417-3.999-5.507l-62.446-31.84 5.301-5.301 98.858 5.75c2.133.12 4.223-.67 5.736-2.183l28.778-28.778c2.065-2.061 4.605-3.678 7.348-4.675z" data-original="#000000" class="active-path" data-old_color="#000000" fill="#000078"/><path d="m328.651 163.249-30.856 30.856c-2.927 2.928-2.927 7.674 0 10.603 1.464 1.463 3.383 2.195 5.301 2.195s3.837-.732 5.301-2.195l30.856-30.856c2.927-2.928 2.927-7.674 0-10.603-2.928-2.927-7.674-2.927-10.602 0z" data-original="#000000" class="active-path" data-old_color="#000000" fill="#000078"/><path d="m346.202 180.799-30.856 30.856c-2.927 2.928-2.927 7.674 0 10.603 1.464 1.463 3.383 2.195 5.301 2.195s3.837-.732 5.301-2.195l30.856-30.856c2.927-2.928 2.927-7.674 0-10.603-2.928-2.926-7.674-2.926-10.602 0z" data-original="#000000" class="active-path" data-old_color="#000000" fill="#000078"/><path d="m349.763 256.676c1.464 1.463 3.383 2.195 5.301 2.195s3.837-.732 5.301-2.195l30.856-30.856c2.927-2.928 2.927-7.674 0-10.603-2.928-2.926-7.674-2.926-10.603 0l-30.856 30.856c-2.926 2.929-2.926 7.675.001 10.603z" data-original="#000000" class="active-path" data-old_color="#000000" fill="#000078"/><path d="m304.319 138.917-30.856 30.856c-2.928 2.928-2.928 7.674 0 10.603 1.464 1.463 3.383 2.195 5.301 2.195s3.837-.732 5.301-2.195l30.856-30.856c2.927-2.928 2.927-7.674 0-10.603-2.928-2.926-7.673-2.926-10.602 0z" data-original="#000000" class="active-path" data-old_color="#000000" fill="#000078"/></g></g> </svg>
